<svg xmlns="http://www.w3.org/2000/svg" width="48" height="48" viewBox="0 0 48 48">
    <path fill="currentColor" d="M39.13,19.24l.92-.46V9.43l-1-.5-3-.19-.79.53V8.43l-6-.37L29,9.27l-1.38.16L25.86,8.06H21.14L19.55,9.22h-3l-.25-.37-8-.21L8.2,10.31A13.16,13.16,0,0,1,8.45,13a9.67,9.67,0,0,1-.5,3v1.63l.63,2.88-.29,1v.84l.75.62v.84l-.75.88v3.29l.66,1-.08,2.63-.58,1.17V35l.25.42,0,.91-.2.55v1.21l.75.58,4.25,0,.59-.29.54.29.54-.25.55.21,1.42.09,1.5-.42.16.42,1.63.08.38-.42,1.21,1.5,1-.87.29.33,1-.08.8.62,1.34-.79h5.17l.59-.54.71.33h4l-.37-.62,1,0,2.67.67V26.25H39l.88-.91V22.71l-1.29-2,.58-.58Zm-7.35-5.55L34,14.94l-.71,4.47-6.22-4.47ZM16.88,34.48h-2.5L12.13,32.6,14.05,27l6.38,6.09Zm17.37-.34H30.74L11.58,14.28l2.34-1L36.38,28.42Z"></path>
</svg>